# xmcd
#
# Track frame offsets: 
#        150
#        18477
#        41337
#        60045
#        79652
#        96412
#        120620
#
# Disc length: 1864 seconds
#
# Revision: 2
# Processed by: cddbd v1.5.2PL0 Copyright (c) Steve Scherf et al.
# Submitted via: ExactAudioCopyFreeDBPlugin 1.0
#
DISCID=49074607
DTITLE=K DUB SHINE - SAVE THE CHILDREN
DYEAR=2001
DGENRE=Hip-Hop
TTITLE0=ザ・シャイニング (KG STILL SHINING REMIX)
TTITLE1=セイブ・ザ・チルドレン
TTITLE2=そうゆうヤツ
TTITLE3=セックスフレンド
TTITLE4=ビッグコッタ (SOUL TRAIN REMIX)
TTITLE5=セント・オブ・フ・ウーマン 〜夢の香り〜
TTITLE6=ザ・シャイニング
EXTD=
EXTT0=
EXTT1=
EXTT2=
EXTT3=
EXTT4=
EXTT5=
EXTT6=
PLAYORDER=
